name analog
datacolumns 19
datarows 27
range 0.3715 0.3845
endheader
time	ground_force_vx	ground_force_vy	ground_force_vz	ground_force_px	ground_force_py	ground_force_pz	l_ground_force_vx	l_ground_force_vy	l_ground_force_vz	l_ground_force_px	l_ground_force_py	l_ground_force_pz	ground_torque_x	ground_torque_y	ground_torque_z	l_ground_torque_x	l_ground_torque_y	l_ground_torque_z
0.3715	-0.0	-0.0	-0.0	8.034737586975098	30.557373046875	-320.7442626953125	1.6652045249938965	-29.927207946777344	-293.63653564453125	-0.0	-0.0	-0.0	-0.0	-0.0	-0.0	54743.41796875	-11221.78125	-421.7137756347656
0.372	-0.0	-0.0	-0.0	8.247346878051758	30.730016708374023	-321.11968994140625	0.9154207706451416	-29.764408111572266	-292.7240295410156	-0.0	-0.0	-0.0	-0.0	-0.0	-0.0	54678.2890625	-11066.58203125	-570.52587890625
0.3725	-0.0	-0.0	-0.0	7.746432304382324	30.745059967041016	-319.706298828125	1.1188640594482422	-30.24024200439453	-293.6932678222656	-0.0	-0.0	-0.0	-0.0	-0.0	-0.0	54807.8125	-10786.82421875	-595.3450317382812
0.373	-0.0	-0.0	-0.0	7.280491352081299	30.70016288757324	-320.5497436523437	0.6459680795669556	-29.989919662475582	-292.9958190917969	-0.0	-0.0	-0.0	-0.0	-0.0	-0.0	54643.88671875	-10942.58203125	-743.865234375
0.3735	-0.0	-0.0	-0.0	7.062983989715576	30.754133224487305	-321.7469482421875	-0.117875337600708	-30.25995635986328	-293.9083557128906	-0.0	-0.0	-0.0	-0.0	-0.0	-0.0	54960.0625	-10696.84765625	-820.2462768554688
0.374	-0.0	-0.0	-0.0	6.49301290512085	31.110286712646484	-320.7640380859375	-0.1428160667419433	-30.59813117980957	-293.69598388671875	-0.0	-0.0	-0.0	-0.0	-0.0	-0.0	54949.59375	-10604.390625	-795.7615356445312
0.3745	-0.0	-0.0	-0.0	5.926247596740723	30.886594772338867	-321.9482421875	-0.8677846193313599	-30.60914802551269	-293.83355712890625	-0.0	-0.0	-0.0	-0.0	-0.0	-0.0	55108.4140625	-10376.1005859375	-886.7118530273438
0.375	-0.0	-0.0	-0.0	5.495950698852539	30.820127487182617	-321.04058837890625	-0.8331747651100159	-30.432838439941406	-294.5331726074219	-0.0	-0.0	-0.0	-0.0	-0.0	-0.0	55033.45703125	-10409.2099609375	-1094.2626953125
0.3755	-0.0	-0.0	-0.0	5.1742095947265625	31.019926071166992	-320.7620849609375	-1.5270929336547852	-30.72017478942871	-294.8211364746094	-0.0	-0.0	-0.0	-0.0	-0.0	-0.0	55089.90625	-10110.748046875	-1171.083740234375
0.376	-0.0	-0.0	-0.0	5.319498538970947	30.60695457458496	-322.0917053222656	-1.5080833435058594	-30.805509567260746	-295.9430847167969	-0.0	-0.0	-0.0	-0.0	-0.0	-0.0	55203.75390625	-9969.8291015625	-1212.5218505859375
0.3765	-0.0	-0.0	-0.0	5.1742095947265625	30.785303115844727	-322.03350830078125	-1.6668375730514526	-30.682493209838867	-295.17095947265625	-0.0	-0.0	-0.0	-0.0	-0.0	-0.0	55210.1640625	-9955.4384765625	-1231.4466552734375
0.377	-0.0	-0.0	-0.0	4.923632621765137	30.517986297607425	-322.31304931640625	-1.7040224075317385	-30.807762145996094	-294.6839599609375	-0.0	-0.0	-0.0	-0.0	-0.0	-0.0	55320.9921875	-9548.7490234375	-1225.2628173828125
0.3775	-0.0	-0.0	-0.0	4.8173675537109375	31.017379760742188	-319.8404541015625	-1.881276249885559	-30.630868911743164	-294.5455017089844	-0.0	-0.0	-0.0	-0.0	-0.0	-0.0	55245.09765625	-9767.0439453125	-1213.579833984375
0.378	-0.0	-0.0	-0.0	5.10305118560791	30.429014205932617	-321.463134765625	-1.6514066457748413	-30.947689056396484	-293.98565673828125	-0.0	-0.0	-0.0	-0.0	-0.0	-0.0	55077.71484375	-9650.1162109375	-1320.34033203125
0.3785	-0.0	-0.0	-0.0	4.8173675537109375	30.286476135253903	-320.05181884765625	-1.4893367290496826	-30.25843811035156	-293.21923828125	-0.0	-0.0	-0.0	-0.0	-0.0	-0.0	54960.02734375	-9664.4658203125	-1123.9207763671875
0.379	-0.0	-0.0	-0.0	4.638946533203125	30.429523468017575	-320.47711181640625	-1.206526279449463	-30.38265991210937	-293.77593994140625	-0.0	-0.0	-0.0	-0.0	-0.0	-0.0	55032.7734375	-9497.5947265625	-1218.9278564453125
0.3795	-0.0	-0.0	-0.0	4.959963321685791	30.3941707611084	-319.5555419921875	-1.383874773979187	-30.34738540649414	-294.4745483398437	-0.0	-0.0	-0.0	-0.0	-0.0	-0.0	54952.01953125	-9355.837890625	-1213.093017578125
0.38	-0.0	-0.0	-0.0	5.1742095947265625	30.535850524902344	-319.136962890625	-1.4900490045547483	-30.4180850982666	-293.70556640625	-0.0	-0.0	-0.0	-0.0	-0.0	-0.0	55166.71484375	-9152.6572265625	-1367.464111328125
0.3805	-0.0	-0.0	-0.0	4.8345794677734375	30.127649307250977	-320.891845703125	-1.7376115322113037	-29.799922943115234	-292.8698425292969	-0.0	-0.0	-0.0	-0.0	-0.0	-0.0	54735.140625	-8922.0439453125	-1331.7587890625
0.381	-0.0	-0.0	-0.0	4.760340690612793	30.44849967956543	-320.6796875	-1.9516372680664065	-29.763113021850582	-292.6568603515625	-0.0	-0.0	-0.0	-0.0	-0.0	-0.0	54813.44921875	-8584.046875	-1462.48583984375
0.3815	-0.0	-0.0	-0.0	4.3905768394470215	30.30670166015625	-320.6967468261719	-2.502675771713257	-29.64041519165039	-291.8236694335937	-0.0	-0.0	-0.0	-0.0	-0.0	-0.0	54674.23046875	-8708.431640625	-1593.4832763671875
0.382	-0.0	-0.0	-0.0	4.518979072570801	30.21247100830078	-319.0757751464844	-2.361375093460083	-29.78124237060547	-292.0320739746094	-0.0	-0.0	-0.0	-0.0	-0.0	-0.0	54680.7734375	-8640.9775390625	-1665.4735107421875
0.3825	-0.0	-0.0	-0.0	4.315249443054199	30.182090759277344	-319.3403015136719	-3.032900810241699	-30.026865005493164	-293.7023620605469	-0.0	-0.0	-0.0	-0.0	-0.0	-0.0	54750.85546875	-8400.76171875	-1700.6341552734375
0.383	-0.0	-0.0	-0.0	4.668158054351807	30.00416755676269	-319.6136169433594	-2.9635281562805176	-29.833309173583984	-293.2106018066406	-0.0	-0.0	-0.0	-0.0	-0.0	-0.0	54806.12890625	-8233.5068359375	-1665.3319091796875
0.3835	-0.0	-0.0	-0.0	4.17267370223999	30.336820602416992	-319.77227783203125	-2.94718074798584	-30.12098503112793	-293.55889892578125	-0.0	-0.0	-0.0	-0.0	-0.0	-0.0	54888.57421875	-8174.34228515625	-1812.6573486328125
0.384	-0.0	-0.0	-0.0	3.98229718208313	30.320409774780277	-320.1257629394531	-3.347309112548828	-30.12140274047852	-294.3201599121094	-0.0	-0.0	-0.0	-0.0	-0.0	-0.0	54898.7734375	-8082.37158203125	-1873.4312744140625
0.3845	-0.0	-0.0	-0.0	3.232314348220825	30.729270935058597	-318.21514892578125	-3.6049866676330566	-30.298480987548828	-292.2562866210937	-0.0	-0.0	-0.0	-0.0	-0.0	-0.0	54949.0546875	-7909.64306640625	-1896.6142578125
